G04 #@! TF.GenerationSoftware,KiCad,Pcbnew,(6.0.6-0)*
G04 #@! TF.CreationDate,2022-10-30T19:45:58+01:00*
G04 #@! TF.ProjectId,nevil_sbc_rev0,6e657669-6c5f-4736-9263-5f726576302e,rev?*
G04 #@! TF.SameCoordinates,Original*
G04 #@! TF.FileFunction,Soldermask,Top*
G04 #@! TF.FilePolarity,Negative*
%FSLAX46Y46*%
G04 Gerber Fmt 4.6, Leading zero omitted, Abs format (unit mm)*
G04 Created by KiCad (PCBNEW (6.0.6-0)) date 2022-10-30 19:45:58*
%MOMM*%
%LPD*%
G01*
G04 APERTURE LIST*
G04 Aperture macros list*
%AMRoundRect*
0 Rectangle with rounded corners*
0 $1 Rounding radius*
0 $2 $3 $4 $5 $6 $7 $8 $9 X,Y pos of 4 corners*
0 Add a 4 corners polygon primitive as box body*
4,1,4,$2,$3,$4,$5,$6,$7,$8,$9,$2,$3,0*
0 Add four circle primitives for the rounded corners*
1,1,$1+$1,$2,$3*
1,1,$1+$1,$4,$5*
1,1,$1+$1,$6,$7*
1,1,$1+$1,$8,$9*
0 Add four rect primitives between the rounded corners*
20,1,$1+$1,$2,$3,$4,$5,0*
20,1,$1+$1,$4,$5,$6,$7,0*
20,1,$1+$1,$6,$7,$8,$9,0*
20,1,$1+$1,$8,$9,$2,$3,0*%
G04 Aperture macros list end*
%ADD10C,6.400000*%
%ADD11C,1.600000*%
%ADD12R,1.600000X1.600000*%
%ADD13R,2.400000X1.600000*%
%ADD14O,2.400000X1.600000*%
%ADD15R,1.600000X2.400000*%
%ADD16O,1.600000X2.400000*%
%ADD17C,2.000000*%
%ADD18C,1.400000*%
%ADD19O,1.400000X1.400000*%
%ADD20RoundRect,0.150000X0.150000X-0.800000X0.150000X0.800000X-0.150000X0.800000X-0.150000X-0.800000X0*%
%ADD21O,1.500000X1.500000*%
%ADD22O,1.800000X1.800000*%
%ADD23O,1.700000X1.700000*%
%ADD24R,3.500000X1.700000*%
%ADD25R,1.700000X1.700000*%
%ADD26R,1.700000X3.500000*%
%ADD27RoundRect,0.100000X0.637500X0.100000X-0.637500X0.100000X-0.637500X-0.100000X0.637500X-0.100000X0*%
%ADD28R,2.000000X2.000000*%
%ADD29R,1.800000X1.800000*%
%ADD30C,1.800000*%
%ADD31O,1.600000X1.600000*%
%ADD32O,2.900000X1.500000*%
%ADD33O,1.500000X2.900000*%
%ADD34O,1.500000X4.000000*%
%ADD35C,4.000000*%
G04 APERTURE END LIST*
D10*
X178206400Y-118465600D03*
X237337600Y-24282400D03*
X237337600Y-165049200D03*
D11*
X180746400Y-30062800D03*
X180746400Y-35062800D03*
D12*
X186258200Y-25501600D03*
D11*
X186258200Y-23501600D03*
X92060400Y-59588400D03*
X87060400Y-59588400D03*
D13*
X97536000Y-99060000D03*
D14*
X97536000Y-101600000D03*
X97536000Y-104140000D03*
X97536000Y-106680000D03*
X97536000Y-109220000D03*
X97536000Y-111760000D03*
X97536000Y-114300000D03*
X97536000Y-116840000D03*
X97536000Y-119380000D03*
X97536000Y-121920000D03*
X97536000Y-124460000D03*
X97536000Y-127000000D03*
X97536000Y-129540000D03*
X97536000Y-132080000D03*
X112776000Y-132080000D03*
X112776000Y-129540000D03*
X112776000Y-127000000D03*
X112776000Y-124460000D03*
X112776000Y-121920000D03*
X112776000Y-119380000D03*
X112776000Y-116840000D03*
X112776000Y-114300000D03*
X112776000Y-111760000D03*
X112776000Y-109220000D03*
X112776000Y-106680000D03*
X112776000Y-104140000D03*
X112776000Y-101600000D03*
X112776000Y-99060000D03*
D13*
X168818400Y-27081400D03*
D14*
X168818400Y-29621400D03*
X168818400Y-32161400D03*
X168818400Y-34701400D03*
X168818400Y-37241400D03*
X168818400Y-39781400D03*
X168818400Y-42321400D03*
X168818400Y-44861400D03*
X168818400Y-47401400D03*
X168818400Y-49941400D03*
X176438400Y-49941400D03*
X176438400Y-47401400D03*
X176438400Y-44861400D03*
X176438400Y-42321400D03*
X176438400Y-39781400D03*
X176438400Y-37241400D03*
X176438400Y-34701400D03*
X176438400Y-32161400D03*
X176438400Y-29621400D03*
X176438400Y-27081400D03*
D15*
X155910200Y-164952600D03*
D16*
X158450200Y-164952600D03*
X160990200Y-164952600D03*
X163530200Y-164952600D03*
X166070200Y-164952600D03*
X168610200Y-164952600D03*
X171150200Y-164952600D03*
X173690200Y-164952600D03*
X176230200Y-164952600D03*
X178770200Y-164952600D03*
X181310200Y-164952600D03*
X183850200Y-164952600D03*
X186390200Y-164952600D03*
X188930200Y-164952600D03*
X191470200Y-164952600D03*
X194010200Y-164952600D03*
X196550200Y-164952600D03*
X199090200Y-164952600D03*
X201630200Y-164952600D03*
X204170200Y-164952600D03*
X204170200Y-149712600D03*
X201630200Y-149712600D03*
X199090200Y-149712600D03*
X196550200Y-149712600D03*
X194010200Y-149712600D03*
X191470200Y-149712600D03*
X188930200Y-149712600D03*
X186390200Y-149712600D03*
X183850200Y-149712600D03*
X181310200Y-149712600D03*
X178770200Y-149712600D03*
X176230200Y-149712600D03*
X173690200Y-149712600D03*
X171150200Y-149712600D03*
X168610200Y-149712600D03*
X166070200Y-149712600D03*
X163530200Y-149712600D03*
X160990200Y-149712600D03*
X158450200Y-149712600D03*
X155910200Y-149712600D03*
D13*
X105420000Y-25151000D03*
D14*
X105420000Y-27691000D03*
X105420000Y-30231000D03*
X105420000Y-32771000D03*
X105420000Y-35311000D03*
X105420000Y-37851000D03*
X105420000Y-40391000D03*
X105420000Y-42931000D03*
X105420000Y-45471000D03*
X105420000Y-48011000D03*
X113040000Y-48011000D03*
X113040000Y-45471000D03*
X113040000Y-42931000D03*
X113040000Y-40391000D03*
X113040000Y-37851000D03*
X113040000Y-35311000D03*
X113040000Y-32771000D03*
X113040000Y-30231000D03*
X113040000Y-27691000D03*
X113040000Y-25151000D03*
D15*
X52837000Y-164851000D03*
D16*
X55377000Y-164851000D03*
X57917000Y-164851000D03*
X60457000Y-164851000D03*
X62997000Y-164851000D03*
X65537000Y-164851000D03*
X68077000Y-164851000D03*
X70617000Y-164851000D03*
X73157000Y-164851000D03*
X75697000Y-164851000D03*
X78237000Y-164851000D03*
X80777000Y-164851000D03*
X83317000Y-164851000D03*
X85857000Y-164851000D03*
X88397000Y-164851000D03*
X90937000Y-164851000D03*
X93477000Y-164851000D03*
X96017000Y-164851000D03*
X98557000Y-164851000D03*
X101097000Y-164851000D03*
X101097000Y-149611000D03*
X98557000Y-149611000D03*
X96017000Y-149611000D03*
X93477000Y-149611000D03*
X90937000Y-149611000D03*
X88397000Y-149611000D03*
X85857000Y-149611000D03*
X83317000Y-149611000D03*
X80777000Y-149611000D03*
X78237000Y-149611000D03*
X75697000Y-149611000D03*
X73157000Y-149611000D03*
X70617000Y-149611000D03*
X68077000Y-149611000D03*
X65537000Y-149611000D03*
X62997000Y-149611000D03*
X60457000Y-149611000D03*
X57917000Y-149611000D03*
X55377000Y-149611000D03*
X52837000Y-149611000D03*
D17*
X181671400Y-40234800D03*
X181671400Y-46734800D03*
X186171400Y-46734800D03*
X186171400Y-40234800D03*
D18*
X194284600Y-46837600D03*
D19*
X194284600Y-39217600D03*
D18*
X224663000Y-113690400D03*
D19*
X217043000Y-113690400D03*
D11*
X64363600Y-43296200D03*
X64363600Y-48296200D03*
X75920600Y-98283400D03*
X75920600Y-93283400D03*
D18*
X220853000Y-103530400D03*
D19*
X220853000Y-111150400D03*
D18*
X194284600Y-29464000D03*
D19*
X194284600Y-37084000D03*
D11*
X74813800Y-54305200D03*
X69813800Y-54305200D03*
D18*
X117195600Y-29184600D03*
D19*
X117195600Y-36804600D03*
D18*
X234823000Y-115773200D03*
D19*
X234823000Y-108153200D03*
D11*
X82662400Y-40233600D03*
X77662400Y-40233600D03*
D20*
X184937400Y-37078800D03*
X186207400Y-37078800D03*
X187477400Y-37078800D03*
X188747400Y-37078800D03*
X188747400Y-30078800D03*
X187477400Y-30078800D03*
X186207400Y-30078800D03*
X184937400Y-30078800D03*
D18*
X220853000Y-90473200D03*
D19*
X220853000Y-98093200D03*
D18*
X224663000Y-76403200D03*
D19*
X224663000Y-84023200D03*
D18*
X102616000Y-45466000D03*
D19*
X94996000Y-45466000D03*
D13*
X57409000Y-99299000D03*
D14*
X57409000Y-101839000D03*
X57409000Y-104379000D03*
X57409000Y-106919000D03*
X57409000Y-109459000D03*
X57409000Y-111999000D03*
X57409000Y-114539000D03*
X57409000Y-117079000D03*
X57409000Y-119619000D03*
X57409000Y-122159000D03*
X57409000Y-124699000D03*
X57409000Y-127239000D03*
X57409000Y-129779000D03*
X57409000Y-132319000D03*
X72649000Y-132319000D03*
X72649000Y-129779000D03*
X72649000Y-127239000D03*
X72649000Y-124699000D03*
X72649000Y-122159000D03*
X72649000Y-119619000D03*
X72649000Y-117079000D03*
X72649000Y-114539000D03*
X72649000Y-111999000D03*
X72649000Y-109459000D03*
X72649000Y-106919000D03*
X72649000Y-104379000D03*
X72649000Y-101839000D03*
X72649000Y-99299000D03*
D10*
X51206400Y-140868400D03*
D18*
X53111400Y-77978000D03*
D19*
X60731400Y-77978000D03*
D11*
X207100800Y-164947600D03*
X212100800Y-164947600D03*
D13*
X93081000Y-40264000D03*
D14*
X93081000Y-37724000D03*
X93081000Y-35184000D03*
X93081000Y-32644000D03*
X93081000Y-30104000D03*
X93081000Y-27564000D03*
X93081000Y-25024000D03*
X85461000Y-25024000D03*
X85461000Y-27564000D03*
X85461000Y-30104000D03*
X85461000Y-32644000D03*
X85461000Y-35184000D03*
X85461000Y-37724000D03*
X85461000Y-40264000D03*
D10*
X51206400Y-24282400D03*
D21*
X198309800Y-66710800D03*
X193459800Y-66710800D03*
D22*
X198609800Y-63680800D03*
X193159800Y-63680800D03*
D23*
X186994800Y-63550800D03*
D24*
X186094800Y-63550800D03*
D23*
X186994800Y-66090800D03*
D24*
X186094800Y-66090800D03*
X186094800Y-68630800D03*
D25*
X186994800Y-68630800D03*
D23*
X186994800Y-71170800D03*
D24*
X186094800Y-71170800D03*
X186094800Y-73710800D03*
D23*
X186994800Y-73710800D03*
X186994800Y-76250800D03*
D24*
X186094800Y-76250800D03*
X186094800Y-78790800D03*
D23*
X186994800Y-78790800D03*
D24*
X186094800Y-81330800D03*
D25*
X186994800Y-81330800D03*
D23*
X186994800Y-83870800D03*
D24*
X186094800Y-83870800D03*
X186094800Y-86410800D03*
D23*
X186994800Y-86410800D03*
D24*
X186094800Y-88950800D03*
D23*
X186994800Y-88950800D03*
D24*
X186094800Y-91490800D03*
D23*
X186994800Y-91490800D03*
D24*
X186094800Y-94030800D03*
D25*
X186994800Y-94030800D03*
D24*
X186094800Y-96570800D03*
D23*
X186994800Y-96570800D03*
D24*
X186094800Y-99110800D03*
D23*
X186994800Y-99110800D03*
X186994800Y-101650800D03*
D24*
X186094800Y-101650800D03*
X186094800Y-104190800D03*
D23*
X186994800Y-104190800D03*
D24*
X186094800Y-106730800D03*
D25*
X186994800Y-106730800D03*
D23*
X186994800Y-109270800D03*
D24*
X186094800Y-109270800D03*
X186094800Y-111810800D03*
D23*
X186994800Y-111810800D03*
X204774800Y-111810800D03*
D24*
X205674800Y-111810800D03*
D23*
X204774800Y-109270800D03*
D24*
X205674800Y-109270800D03*
D25*
X204774800Y-106730800D03*
D24*
X205674800Y-106730800D03*
D23*
X204774800Y-104190800D03*
D24*
X205674800Y-104190800D03*
X205674800Y-101650800D03*
D23*
X204774800Y-101650800D03*
X204774800Y-99110800D03*
D24*
X205674800Y-99110800D03*
X205674800Y-96570800D03*
D23*
X204774800Y-96570800D03*
D24*
X205674800Y-94030800D03*
D25*
X204774800Y-94030800D03*
D24*
X205674800Y-91490800D03*
D23*
X204774800Y-91490800D03*
X204774800Y-88950800D03*
D24*
X205674800Y-88950800D03*
D23*
X204774800Y-86410800D03*
D24*
X205674800Y-86410800D03*
X205674800Y-83870800D03*
D23*
X204774800Y-83870800D03*
D25*
X204774800Y-81330800D03*
D24*
X205674800Y-81330800D03*
D23*
X204774800Y-78790800D03*
D24*
X205674800Y-78790800D03*
X205674800Y-76250800D03*
D23*
X204774800Y-76250800D03*
X204774800Y-73710800D03*
D24*
X205674800Y-73710800D03*
X205674800Y-71170800D03*
D23*
X204774800Y-71170800D03*
D24*
X205674800Y-68630800D03*
D25*
X204774800Y-68630800D03*
D23*
X204774800Y-66090800D03*
D24*
X205674800Y-66090800D03*
D23*
X204774800Y-63550800D03*
D24*
X205674800Y-63550800D03*
D23*
X193344800Y-111580800D03*
D26*
X193344800Y-112480800D03*
D25*
X195884800Y-111580800D03*
D26*
X195884800Y-112480800D03*
X198424800Y-112480800D03*
D23*
X198424800Y-111580800D03*
D27*
X82669300Y-53633800D03*
X82669300Y-52983800D03*
X82669300Y-52333800D03*
X82669300Y-51683800D03*
X82669300Y-51033800D03*
X82669300Y-50383800D03*
X82669300Y-49733800D03*
X82669300Y-49083800D03*
X76944300Y-49083800D03*
X76944300Y-49733800D03*
X76944300Y-50383800D03*
X76944300Y-51033800D03*
X76944300Y-51683800D03*
X76944300Y-52333800D03*
X76944300Y-52983800D03*
X76944300Y-53633800D03*
D28*
X224764600Y-64637523D03*
D17*
X224764600Y-69637523D03*
D29*
X216179400Y-49809400D03*
D30*
X216179400Y-47269400D03*
D25*
X156514800Y-88773000D03*
D23*
X159054800Y-88773000D03*
X156514800Y-91313000D03*
X159054800Y-91313000D03*
X156514800Y-93853000D03*
X159054800Y-93853000D03*
X156514800Y-96393000D03*
X159054800Y-96393000D03*
X156514800Y-98933000D03*
X159054800Y-98933000D03*
X156514800Y-101473000D03*
X159054800Y-101473000D03*
X156514800Y-104013000D03*
X159054800Y-104013000D03*
X156514800Y-106553000D03*
X159054800Y-106553000D03*
X156514800Y-109093000D03*
X159054800Y-109093000D03*
X156514800Y-111633000D03*
X159054800Y-111633000D03*
X156514800Y-114173000D03*
X159054800Y-114173000D03*
X156514800Y-116713000D03*
X159054800Y-116713000D03*
X156514800Y-119253000D03*
X159054800Y-119253000D03*
X156514800Y-121793000D03*
X159054800Y-121793000D03*
X156514800Y-124333000D03*
X159054800Y-124333000D03*
X156514800Y-126873000D03*
X159054800Y-126873000D03*
X156514800Y-129413000D03*
X159054800Y-129413000D03*
D12*
X217566400Y-159999600D03*
D31*
X217566400Y-157459600D03*
X217566400Y-154919600D03*
X217566400Y-152379600D03*
X217566400Y-149839600D03*
X217566400Y-147299600D03*
X217566400Y-144759600D03*
X209946400Y-144759600D03*
X209946400Y-147299600D03*
X209946400Y-149839600D03*
X209946400Y-152379600D03*
X209946400Y-154919600D03*
X209946400Y-157459600D03*
X209946400Y-159999600D03*
D28*
X210749277Y-36982400D03*
D17*
X205749277Y-36982400D03*
D11*
X217540200Y-164973000D03*
X222540200Y-164973000D03*
D15*
X134869000Y-32756000D03*
D16*
X137409000Y-32756000D03*
X139949000Y-32756000D03*
X142489000Y-32756000D03*
X145029000Y-32756000D03*
X147569000Y-32756000D03*
X150109000Y-32756000D03*
X150109000Y-25136000D03*
X147569000Y-25136000D03*
X145029000Y-25136000D03*
X142489000Y-25136000D03*
X139949000Y-25136000D03*
X137409000Y-25136000D03*
X134869000Y-25136000D03*
D18*
X173761400Y-134493000D03*
D19*
X173761400Y-126873000D03*
D25*
X92197000Y-173126400D03*
D23*
X94737000Y-173126400D03*
X97277000Y-173126400D03*
X99817000Y-173126400D03*
X102357000Y-173126400D03*
X104897000Y-173126400D03*
X107437000Y-173126400D03*
X109977000Y-173126400D03*
X112517000Y-173126400D03*
X115057000Y-173126400D03*
X117597000Y-173126400D03*
X120137000Y-173126400D03*
D18*
X224663000Y-103530400D03*
D19*
X224663000Y-111150400D03*
D11*
X236953800Y-129773200D03*
X236953800Y-127173200D03*
X236953800Y-131873200D03*
X236953800Y-125073200D03*
X234453800Y-131873200D03*
X234453800Y-125073200D03*
D32*
X239953800Y-121723200D03*
D33*
X240753800Y-128473200D03*
D32*
X239953800Y-135223200D03*
D18*
X231013000Y-115773200D03*
D19*
X231013000Y-108153200D03*
D18*
X224663000Y-86563200D03*
D19*
X217043000Y-86563200D03*
D18*
X217043000Y-76403200D03*
D19*
X217043000Y-84023200D03*
D18*
X224663000Y-100533200D03*
D19*
X217043000Y-100533200D03*
D18*
X224663000Y-90473200D03*
D19*
X224663000Y-98093200D03*
D13*
X57130000Y-67320000D03*
D14*
X57130000Y-64780000D03*
X57130000Y-62240000D03*
X57130000Y-59700000D03*
X57130000Y-57160000D03*
X57130000Y-54620000D03*
X57130000Y-52080000D03*
X49510000Y-52080000D03*
X49510000Y-54620000D03*
X49510000Y-57160000D03*
X49510000Y-59700000D03*
X49510000Y-62240000D03*
X49510000Y-64780000D03*
X49510000Y-67320000D03*
D34*
X218502800Y-37033200D03*
X224852800Y-37033200D03*
D18*
X217043000Y-103530400D03*
D19*
X217043000Y-111150400D03*
D18*
X138074400Y-44450000D03*
D19*
X138074400Y-36830000D03*
D18*
X102870000Y-59613800D03*
D19*
X110490000Y-59613800D03*
D13*
X168666000Y-58475800D03*
D14*
X168666000Y-61015800D03*
X168666000Y-63555800D03*
X168666000Y-66095800D03*
X168666000Y-68635800D03*
X168666000Y-71175800D03*
X168666000Y-73715800D03*
X168666000Y-76255800D03*
X168666000Y-78795800D03*
X168666000Y-81335800D03*
X176286000Y-81335800D03*
X176286000Y-78795800D03*
X176286000Y-76255800D03*
X176286000Y-73715800D03*
X176286000Y-71175800D03*
X176286000Y-68635800D03*
X176286000Y-66095800D03*
X176286000Y-63555800D03*
X176286000Y-61015800D03*
X176286000Y-58475800D03*
D25*
X198546800Y-58369200D03*
D23*
X201086800Y-58369200D03*
D11*
X95239200Y-59588400D03*
X100239200Y-59588400D03*
D35*
X232982669Y-77888200D03*
X232982669Y-102888200D03*
D12*
X231562669Y-86073200D03*
D11*
X231562669Y-88363200D03*
X231562669Y-90653200D03*
X231562669Y-92943200D03*
X231562669Y-95233200D03*
X233542669Y-84928200D03*
X233542669Y-87218200D03*
X233542669Y-89508200D03*
X233542669Y-91798200D03*
X233542669Y-94088200D03*
X235522669Y-86073200D03*
X235522669Y-88363200D03*
X235522669Y-90653200D03*
X235522669Y-92943200D03*
X235522669Y-95233200D03*
D18*
X216052400Y-53390800D03*
D19*
X208432400Y-53390800D03*
D11*
X165125400Y-27087200D03*
X165125400Y-22087200D03*
D18*
X220853000Y-76403200D03*
D19*
X220853000Y-84023200D03*
D25*
X49520000Y-43185000D03*
D23*
X52060000Y-43185000D03*
X54600000Y-43185000D03*
D29*
X149169200Y-160477200D03*
D30*
X151709200Y-160477200D03*
D11*
X180644800Y-58456200D03*
X180644800Y-53456200D03*
X210678400Y-47244000D03*
X205678400Y-47244000D03*
D25*
X178816000Y-171323000D03*
D23*
X181356000Y-171323000D03*
X183896000Y-171323000D03*
X186436000Y-171323000D03*
X188976000Y-171323000D03*
X191516000Y-171323000D03*
X194056000Y-171323000D03*
X196596000Y-171323000D03*
X199136000Y-171323000D03*
X201676000Y-171323000D03*
X204216000Y-171323000D03*
X206756000Y-171323000D03*
D11*
X186269000Y-50038000D03*
X181269000Y-50038000D03*
D15*
X113025000Y-62987000D03*
D16*
X110485000Y-62987000D03*
X107945000Y-62987000D03*
X105405000Y-62987000D03*
X102865000Y-62987000D03*
X100325000Y-62987000D03*
X97785000Y-62987000D03*
X95245000Y-62987000D03*
X92705000Y-62987000D03*
X90165000Y-62987000D03*
X87625000Y-62987000D03*
X85085000Y-62987000D03*
X82545000Y-62987000D03*
X80005000Y-62987000D03*
X77465000Y-62987000D03*
X74925000Y-62987000D03*
X72385000Y-62987000D03*
X69845000Y-62987000D03*
X67305000Y-62987000D03*
X64765000Y-62987000D03*
X64765000Y-78227000D03*
X67305000Y-78227000D03*
X69845000Y-78227000D03*
X72385000Y-78227000D03*
X74925000Y-78227000D03*
X77465000Y-78227000D03*
X80005000Y-78227000D03*
X82545000Y-78227000D03*
X85085000Y-78227000D03*
X87625000Y-78227000D03*
X90165000Y-78227000D03*
X92705000Y-78227000D03*
X95245000Y-78227000D03*
X97785000Y-78227000D03*
X100325000Y-78227000D03*
X102865000Y-78227000D03*
X105405000Y-78227000D03*
X107945000Y-78227000D03*
X110485000Y-78227000D03*
X113025000Y-78227000D03*
D11*
X115508400Y-98983800D03*
X120508400Y-98983800D03*
X216204800Y-64632200D03*
X216204800Y-69632200D03*
D13*
X71999000Y-40391000D03*
D14*
X71999000Y-37851000D03*
X71999000Y-35311000D03*
X71999000Y-32771000D03*
X71999000Y-30231000D03*
X71999000Y-27691000D03*
X71999000Y-25151000D03*
X64379000Y-25151000D03*
X64379000Y-27691000D03*
X64379000Y-30231000D03*
X64379000Y-32771000D03*
X64379000Y-35311000D03*
X64379000Y-37851000D03*
X64379000Y-40391000D03*
D18*
X145542000Y-160451800D03*
D19*
X137922000Y-160451800D03*
D25*
X55362000Y-173126400D03*
D23*
X57902000Y-173126400D03*
X60442000Y-173126400D03*
X62982000Y-173126400D03*
X65522000Y-173126400D03*
X68062000Y-173126400D03*
X70602000Y-173126400D03*
X73142000Y-173126400D03*
X75682000Y-173126400D03*
X78222000Y-173126400D03*
X80762000Y-173126400D03*
X83302000Y-173126400D03*
D11*
X116270400Y-25146000D03*
X121270400Y-25146000D03*
D18*
X53111400Y-72644000D03*
D19*
X60731400Y-72644000D03*
D18*
X217043000Y-90473200D03*
D19*
X217043000Y-98093200D03*
D11*
X132141600Y-25095200D03*
X127141600Y-25095200D03*
X104053000Y-164871400D03*
X109053000Y-164871400D03*
M02*
