M48
; DRILL file {KiCad (6.0.6-0)} date 2022 October 30, Sunday 19:47:11
; FORMAT={-:-/ absolute / metric / decimal}
; #@! TF.CreationDate,2022-10-30T19:47:11+01:00
; #@! TF.GenerationSoftware,Kicad,Pcbnew,(6.0.6-0)
; #@! TF.FileFunction,Plated,1,2,PTH
FMAT,2
METRIC
; #@! TA.AperFunction,Plated,PTH,ViaDrill
T1C0.300
; #@! TA.AperFunction,Plated,PTH,ViaDrill
T2C0.400
; #@! TA.AperFunction,Plated,PTH,ComponentDrill
T3C0.500
; #@! TA.AperFunction,Plated,PTH,ComponentDrill
T4C0.700
; #@! TA.AperFunction,Plated,PTH,ComponentDrill
T5C0.800
; #@! TA.AperFunction,Plated,PTH,ComponentDrill
T6C0.900
; #@! TA.AperFunction,Plated,PTH,ComponentDrill
T7C1.000
; #@! TA.AperFunction,Plated,PTH,ComponentDrill
T8C1.020
; #@! TA.AperFunction,Plated,PTH,ComponentDrill
T9C1.100
; #@! TA.AperFunction,Plated,PTH,ComponentDrill
T10C3.200
%
G90
G05
T1
X49.2Y-167.945
X50.825Y-167.945
X56.794Y-96.622
X56.896Y-83.363
X60.554Y-96.622
X64.16Y-137.033
X64.77Y-83.363
X65.024Y-109.296
X65.227Y-114.249
X65.659Y-111.201
X68.834Y-138.024
X69.139Y-100.025
X70.002Y-138.684
X71.069Y-139.344
X72.009Y-46.736
X72.644Y-140.056
X73.812Y-47.65
X74.925Y-58.669
X74.93Y-91.846
X75.133Y-49.733
X76.606Y-140.97
X77.673Y-141.834
X78.13Y-92.913
X78.74Y-142.748
X79.096Y-58.674
X79.096Y-93.98
X79.858Y-51.029
X79.908Y-143.51
X80.213Y-92.05
X80.62Y-48.158
X81.839Y-92.05
X82.245Y-112.116
X82.245Y-122.784
X83.718Y-92.05
X84.252Y-48.311
X84.404Y-54.356
X85.801Y-92.05
X85.852Y-142.748
X87.884Y-92.1
X88.392Y-143.51
X88.951Y-26.365
X89.433Y-27.559
X90.424Y-43.434
X90.424Y-52.781
X90.742Y-26.556
X91.745Y-137.973
X91.897Y-122.784
X92.05Y-104.089
X92.05Y-112.065
X93.066Y-138.633
X93.624Y-58.217
X94.488Y-139.294
X100.711Y-74.727
X103.632Y-75.311
X104.8Y-58.115
X104.851Y-56.896
X104.902Y-50.597
X104.902Y-51.41
X104.902Y-56.134
X105.562Y-49.987
X108.153Y-104.089
X108.966Y-101.6
X109.245Y-20.98
X115.672Y-75.286
X115.672Y-76.81
X117.373Y-111.76
X118.262Y-78.232
X118.262Y-154.33
X118.288Y-109.22
X119.101Y-106.68
X120.345Y-59.385
X122.022Y-75.286
X122.022Y-76.708
X122.225Y-59.385
X123.444Y-32.766
X123.444Y-35.306
X123.444Y-73.406
X123.444Y-128.448
X124.206Y-37.846
X124.206Y-72.898
X124.206Y-91.059
X124.231Y-125.806
X124.511Y-155.804
X124.968Y-42.926
X124.968Y-72.39
X124.968Y-104.14
X124.968Y-123.139
X125.73Y-48.006
X125.73Y-71.882
X125.73Y-91.821
X125.73Y-120.421
X126.492Y-52.324
X126.492Y-71.374
X126.492Y-111.76
X126.492Y-115.392
X127.254Y-53.086
X127.254Y-70.866
X127.254Y-116.84
X127.279Y-113.005
X128.016Y-53.848
X128.016Y-70.358
X128.016Y-109.22
X128.016Y-111.608
X128.118Y-45.72
X128.778Y-54.864
X128.778Y-69.85
X128.778Y-106.68
X128.778Y-107.95
X129.032Y-29.972
X129.54Y-69.342
X129.54Y-85.598
X129.54Y-92.583
X129.565Y-105.791
X130.302Y-68.834
X130.302Y-86.36
X130.302Y-93.472
X130.327Y-104.038
X130.759Y-64.364
X131.064Y-68.326
X131.064Y-87.02
X131.064Y-94.361
X131.064Y-99.797
X131.801Y-87.757
X131.826Y-67.818
X131.826Y-92.812
X131.826Y-95.377
X131.928Y-29.972
X132.588Y-67.31
X132.588Y-88.494
X132.588Y-91.948
X132.588Y-96.266
X132.588Y-154.584
X133.045Y-45.72
X133.045Y-53.238
X133.35Y-66.802
X133.35Y-89.306
X133.35Y-91.11
X133.35Y-135.255
X133.35Y-153.772
X134.112Y-66.294
X134.112Y-90.17
X134.112Y-136.017
X134.112Y-152.908
X134.874Y-65.786
X134.874Y-137.033
X134.874Y-151.994
X135.636Y-85.217
X135.636Y-121.92
X135.636Y-143.51
X136.398Y-84.328
X136.398Y-124.46
X136.398Y-142.748
X137.16Y-83.693
X137.16Y-127.0
X137.16Y-141.859
X137.922Y-53.238
X137.922Y-83.16
X137.922Y-129.54
X137.922Y-140.97
X138.684Y-82.652
X138.684Y-132.08
X138.684Y-140.081
X139.446Y-82.118
X139.446Y-139.319
X139.954Y-78.232
X140.183Y-81.585
X140.208Y-138.684
X140.97Y-81.051
X140.97Y-138.049
X143.256Y-119.38
X144.018Y-114.3
X144.78Y-74.041
X144.78Y-145.44
X145.415Y-101.6
X146.101Y-57.709
X146.101Y-136.195
X146.101Y-144.272
X146.812Y-56.896
X146.812Y-147.015
X147.472Y-56.134
X147.472Y-144.882
X148.692Y-51.41
X148.692Y-132.131
X149.555Y-50.597
X149.555Y-132.918
X149.606Y-38.608
X150.47Y-49.987
X150.47Y-133.655
X151.232Y-64.364
X151.232Y-145.999
X152.298Y-65.735
X153.162Y-66.294
X154.432Y-66.802
X154.483Y-28.854
X154.788Y-74.422
X155.575Y-27.94
X155.575Y-35.966
X156.058Y-44.856
X156.058Y-144.424
X157.505Y-47.422
X157.531Y-74.371
X159.36Y-136.779
X159.512Y-65.786
X159.817Y-22.758
X159.817Y-25.603
X160.274Y-137.516
X161.493Y-27.635
X161.696Y-128.27
X161.696Y-130.607
X162.763Y-30.582
X162.763Y-33.274
X163.474Y-128.27
X163.576Y-130.658
X164.236Y-135.077
X165.659Y-133.655
X166.497Y-132.893
X167.132Y-132.131
X167.919Y-145.39
X169.888Y-161.912
X169.926Y-88.951
X170.688Y-91.491
X170.688Y-96.571
X171.298Y-133.248
X171.907Y-29.464
X172.11Y-161.925
X172.364Y-99.009
X173.025Y-101.651
X173.685Y-138.074
X176.225Y-138.684
X178.765Y-139.344
X181.305Y-140.106
X183.845Y-141.021
X186.385Y-141.884
X188.925Y-142.748
X191.465Y-143.51
X194.945Y-160.401
X196.19Y-159.639
X196.55Y-136.251
X197.231Y-158.979
X198.145Y-158.242
X199.969Y-157.46
X206.959Y-159.41
X206.959Y-161.925
X211.607Y-137.211
X212.344Y-138.379
X213.157Y-141.529
T2
X67.996Y-56.693
X72.593Y-93.904
X82.677Y-22.479
X87.986Y-49.378
X88.697Y-56.642
X88.748Y-152.527
X89.23Y-98.298
X92.761Y-95.479
X95.606Y-25.502
X95.606Y-32.487
X95.606Y-38.887
X107.239Y-99.06
X110.998Y-147.371
X110.998Y-148.59
X116.535Y-153.111
X117.272Y-147.371
X117.805Y-59.157
X129.718Y-25.121
X129.743Y-40.081
X137.033Y-30.099
X139.878Y-30.124
X149.022Y-35.458
X154.229Y-33.807
X154.28Y-30.607
X170.155Y-126.873
X173.939Y-58.471
X174.269Y-55.931
X183.464Y-55.931
X190.119Y-45.39
X225.12Y-148.488
T4
X53.111Y-72.644
X53.111Y-77.978
X60.731Y-72.644
X60.731Y-77.978
X94.996Y-45.466
X102.616Y-45.466
X102.87Y-59.614
X110.49Y-59.614
X117.196Y-29.185
X117.196Y-36.805
X137.922Y-160.452
X138.074Y-36.83
X138.074Y-44.45
X145.542Y-160.452
X173.761Y-126.873
X173.761Y-134.493
X194.285Y-29.464
X194.285Y-37.084
X194.285Y-39.218
X194.285Y-46.838
X208.432Y-53.391
X216.052Y-53.391
X217.043Y-76.403
X217.043Y-84.023
X217.043Y-86.563
X217.043Y-90.473
X217.043Y-98.093
X217.043Y-100.533
X217.043Y-103.53
X217.043Y-111.15
X217.043Y-113.69
X220.853Y-76.403
X220.853Y-84.023
X220.853Y-90.473
X220.853Y-98.093
X220.853Y-103.53
X220.853Y-111.15
X224.663Y-76.403
X224.663Y-84.023
X224.663Y-86.563
X224.663Y-90.473
X224.663Y-98.093
X224.663Y-100.533
X224.663Y-103.53
X224.663Y-111.15
X224.663Y-113.69
X231.013Y-108.153
X231.013Y-115.773
X234.823Y-108.153
X234.823Y-115.773
T5
X49.51Y-52.08
X49.51Y-54.62
X49.51Y-57.16
X49.51Y-59.7
X49.51Y-62.24
X49.51Y-64.78
X49.51Y-67.32
X52.837Y-149.611
X52.837Y-164.851
X55.377Y-149.611
X55.377Y-164.851
X57.13Y-52.08
X57.13Y-54.62
X57.13Y-57.16
X57.13Y-59.7
X57.13Y-62.24
X57.13Y-64.78
X57.13Y-67.32
X57.409Y-99.299
X57.409Y-101.839
X57.409Y-104.379
X57.409Y-106.919
X57.409Y-109.459
X57.409Y-111.999
X57.409Y-114.539
X57.409Y-117.079
X57.409Y-119.619
X57.409Y-122.159
X57.409Y-124.699
X57.409Y-127.239
X57.409Y-129.779
X57.409Y-132.319
X57.917Y-149.611
X57.917Y-164.851
X60.457Y-149.611
X60.457Y-164.851
X62.997Y-149.611
X62.997Y-164.851
X64.364Y-43.296
X64.364Y-48.296
X64.379Y-25.151
X64.379Y-27.691
X64.379Y-30.231
X64.379Y-32.771
X64.379Y-35.311
X64.379Y-37.851
X64.379Y-40.391
X64.765Y-62.987
X64.765Y-78.227
X65.537Y-149.611
X65.537Y-164.851
X67.305Y-62.987
X67.305Y-78.227
X68.077Y-149.611
X68.077Y-164.851
X69.814Y-54.305
X69.845Y-62.987
X69.845Y-78.227
X70.617Y-149.611
X70.617Y-164.851
X71.999Y-25.151
X71.999Y-27.691
X71.999Y-30.231
X71.999Y-32.771
X71.999Y-35.311
X71.999Y-37.851
X71.999Y-40.391
X72.385Y-62.987
X72.385Y-78.227
X72.649Y-99.299
X72.649Y-101.839
X72.649Y-104.379
X72.649Y-106.919
X72.649Y-109.459
X72.649Y-111.999
X72.649Y-114.539
X72.649Y-117.079
X72.649Y-119.619
X72.649Y-122.159
X72.649Y-124.699
X72.649Y-127.239
X72.649Y-129.779
X72.649Y-132.319
X73.157Y-149.611
X73.157Y-164.851
X74.814Y-54.305
X74.925Y-62.987
X74.925Y-78.227
X75.697Y-149.611
X75.697Y-164.851
X75.921Y-93.283
X75.921Y-98.283
X77.465Y-62.987
X77.465Y-78.227
X77.662Y-40.234
X78.237Y-149.611
X78.237Y-164.851
X80.005Y-62.987
X80.005Y-78.227
X80.777Y-149.611
X80.777Y-164.851
X82.545Y-62.987
X82.545Y-78.227
X82.662Y-40.234
X83.317Y-149.611
X83.317Y-164.851
X85.085Y-62.987
X85.085Y-78.227
X85.461Y-25.024
X85.461Y-27.564
X85.461Y-30.104
X85.461Y-32.644
X85.461Y-35.184
X85.461Y-37.724
X85.461Y-40.264
X85.857Y-149.611
X85.857Y-164.851
X87.06Y-59.588
X87.625Y-62.987
X87.625Y-78.227
X88.397Y-149.611
X88.397Y-164.851
X90.165Y-62.987
X90.165Y-78.227
X90.937Y-149.611
X90.937Y-164.851
X92.06Y-59.588
X92.705Y-62.987
X92.705Y-78.227
X93.081Y-25.024
X93.081Y-27.564
X93.081Y-30.104
X93.081Y-32.644
X93.081Y-35.184
X93.081Y-37.724
X93.081Y-40.264
X93.477Y-149.611
X93.477Y-164.851
X95.239Y-59.588
X95.245Y-62.987
X95.245Y-78.227
X96.017Y-149.611
X96.017Y-164.851
X97.536Y-99.06
X97.536Y-101.6
X97.536Y-104.14
X97.536Y-106.68
X97.536Y-109.22
X97.536Y-111.76
X97.536Y-114.3
X97.536Y-116.84
X97.536Y-119.38
X97.536Y-121.92
X97.536Y-124.46
X97.536Y-127.0
X97.536Y-129.54
X97.536Y-132.08
X97.785Y-62.987
X97.785Y-78.227
X98.557Y-149.611
X98.557Y-164.851
X100.239Y-59.588
X100.325Y-62.987
X100.325Y-78.227
X101.097Y-149.611
X101.097Y-164.851
X102.865Y-62.987
X102.865Y-78.227
X104.053Y-164.871
X105.405Y-62.987
X105.405Y-78.227
X105.42Y-25.151
X105.42Y-27.691
X105.42Y-30.231
X105.42Y-32.771
X105.42Y-35.311
X105.42Y-37.851
X105.42Y-40.391
X105.42Y-42.931
X105.42Y-45.471
X105.42Y-48.011
X107.945Y-62.987
X107.945Y-78.227
X109.053Y-164.871
X110.485Y-62.987
X110.485Y-78.227
X112.776Y-99.06
X112.776Y-101.6
X112.776Y-104.14
X112.776Y-106.68
X112.776Y-109.22
X112.776Y-111.76
X112.776Y-114.3
X112.776Y-116.84
X112.776Y-119.38
X112.776Y-121.92
X112.776Y-124.46
X112.776Y-127.0
X112.776Y-129.54
X112.776Y-132.08
X113.025Y-62.987
X113.025Y-78.227
X113.04Y-25.151
X113.04Y-27.691
X113.04Y-30.231
X113.04Y-32.771
X113.04Y-35.311
X113.04Y-37.851
X113.04Y-40.391
X113.04Y-42.931
X113.04Y-45.471
X113.04Y-48.011
X115.508Y-98.984
X116.27Y-25.146
X120.508Y-98.984
X121.27Y-25.146
X127.142Y-25.095
X132.142Y-25.095
X134.869Y-25.136
X134.869Y-32.756
X137.409Y-25.136
X137.409Y-32.756
X139.949Y-25.136
X139.949Y-32.756
X142.489Y-25.136
X142.489Y-32.756
X145.029Y-25.136
X145.029Y-32.756
X147.569Y-25.136
X147.569Y-32.756
X150.109Y-25.136
X150.109Y-32.756
X155.91Y-149.713
X155.91Y-164.953
X158.45Y-149.713
X158.45Y-164.953
X160.99Y-149.713
X160.99Y-164.953
X163.53Y-149.713
X163.53Y-164.953
X165.125Y-22.087
X165.125Y-27.087
X166.07Y-149.713
X166.07Y-164.953
X168.61Y-149.713
X168.61Y-164.953
X168.666Y-58.476
X168.666Y-61.016
X168.666Y-63.556
X168.666Y-66.096
X168.666Y-68.636
X168.666Y-71.176
X168.666Y-73.716
X168.666Y-76.256
X168.666Y-78.796
X168.666Y-81.336
X168.818Y-27.081
X168.818Y-29.621
X168.818Y-32.161
X168.818Y-34.701
X168.818Y-37.241
X168.818Y-39.781
X168.818Y-42.321
X168.818Y-44.861
X168.818Y-47.401
X168.818Y-49.941
X171.15Y-149.713
X171.15Y-164.953
X173.69Y-149.713
X173.69Y-164.953
X176.23Y-149.713
X176.23Y-164.953
X176.286Y-58.476
X176.286Y-61.016
X176.286Y-63.556
X176.286Y-66.096
X176.286Y-68.636
X176.286Y-71.176
X176.286Y-73.716
X176.286Y-76.256
X176.286Y-78.796
X176.286Y-81.336
X176.438Y-27.081
X176.438Y-29.621
X176.438Y-32.161
X176.438Y-34.701
X176.438Y-37.241
X176.438Y-39.781
X176.438Y-42.321
X176.438Y-44.861
X176.438Y-47.401
X176.438Y-49.941
X178.77Y-149.713
X178.77Y-164.953
X180.645Y-53.456
X180.645Y-58.456
X180.746Y-30.063
X180.746Y-35.063
X181.269Y-50.038
X181.31Y-149.713
X181.31Y-164.953
X183.85Y-149.713
X183.85Y-164.953
X186.258Y-23.502
X186.258Y-25.502
X186.269Y-50.038
X186.39Y-149.713
X186.39Y-164.953
X188.93Y-149.713
X188.93Y-164.953
X191.47Y-149.713
X191.47Y-164.953
X194.01Y-149.713
X194.01Y-164.953
X196.55Y-149.713
X196.55Y-164.953
X199.09Y-149.713
X199.09Y-164.953
X201.63Y-149.713
X201.63Y-164.953
X204.17Y-149.713
X204.17Y-164.953
X205.678Y-47.244
X207.101Y-164.948
X209.946Y-144.76
X209.946Y-147.3
X209.946Y-149.84
X209.946Y-152.38
X209.946Y-154.92
X209.946Y-157.46
X209.946Y-160.0
X210.678Y-47.244
X212.101Y-164.948
X216.205Y-64.632
X216.205Y-69.632
X217.54Y-164.973
X217.566Y-144.76
X217.566Y-147.3
X217.566Y-149.84
X217.566Y-152.38
X217.566Y-154.92
X217.566Y-157.46
X217.566Y-160.0
X222.54Y-164.973
T6
X149.169Y-160.477
X151.709Y-160.477
X216.179Y-47.269
X216.179Y-49.809
X234.454Y-125.073
X234.454Y-131.873
X236.954Y-125.073
X236.954Y-127.173
X236.954Y-129.773
X236.954Y-131.873
T7
X49.52Y-43.185
X52.06Y-43.185
X54.6Y-43.185
X55.362Y-173.126
X57.902Y-173.126
X60.442Y-173.126
X62.982Y-173.126
X65.522Y-173.126
X68.062Y-173.126
X70.602Y-173.126
X73.142Y-173.126
X75.682Y-173.126
X78.222Y-173.126
X80.762Y-173.126
X83.302Y-173.126
X92.197Y-173.126
X94.737Y-173.126
X97.277Y-173.126
X99.817Y-173.126
X102.357Y-173.126
X104.897Y-173.126
X107.437Y-173.126
X109.977Y-173.126
X112.517Y-173.126
X115.057Y-173.126
X117.597Y-173.126
X120.137Y-173.126
X156.515Y-88.773
X156.515Y-91.313
X156.515Y-93.853
X156.515Y-96.393
X156.515Y-98.933
X156.515Y-101.473
X156.515Y-104.013
X156.515Y-106.553
X156.515Y-109.093
X156.515Y-111.633
X156.515Y-114.173
X156.515Y-116.713
X156.515Y-119.253
X156.515Y-121.793
X156.515Y-124.333
X156.515Y-126.873
X156.515Y-129.413
X159.055Y-88.773
X159.055Y-91.313
X159.055Y-93.853
X159.055Y-96.393
X159.055Y-98.933
X159.055Y-101.473
X159.055Y-104.013
X159.055Y-106.553
X159.055Y-109.093
X159.055Y-111.633
X159.055Y-114.173
X159.055Y-116.713
X159.055Y-119.253
X159.055Y-121.793
X159.055Y-124.333
X159.055Y-126.873
X159.055Y-129.413
X178.816Y-171.323
X181.356Y-171.323
X183.896Y-171.323
X186.436Y-171.323
X188.976Y-171.323
X191.516Y-171.323
X194.056Y-171.323
X196.596Y-171.323
X198.547Y-58.369
X199.136Y-171.323
X201.087Y-58.369
X201.676Y-171.323
X204.216Y-171.323
X205.749Y-36.982
X206.756Y-171.323
X210.749Y-36.982
X224.765Y-64.638
X224.765Y-69.638
X231.563Y-86.073
X231.563Y-88.363
X231.563Y-90.653
X231.563Y-92.943
X231.563Y-95.233
X233.543Y-84.928
X233.543Y-87.218
X233.543Y-89.508
X233.543Y-91.798
X233.543Y-94.088
X235.523Y-86.073
X235.523Y-88.363
X235.523Y-90.653
X235.523Y-92.943
X235.523Y-95.233
T8
X186.995Y-63.551
X186.995Y-66.091
X186.995Y-68.631
X186.995Y-71.171
X186.995Y-73.711
X186.995Y-76.251
X186.995Y-78.791
X186.995Y-81.331
X186.995Y-83.871
X186.995Y-86.411
X186.995Y-88.951
X186.995Y-91.491
X186.995Y-94.031
X186.995Y-96.571
X186.995Y-99.111
X186.995Y-101.651
X186.995Y-104.191
X186.995Y-106.731
X186.995Y-109.271
X186.995Y-111.811
X193.345Y-111.581
X195.885Y-111.581
X198.425Y-111.581
X204.775Y-63.551
X204.775Y-66.091
X204.775Y-68.631
X204.775Y-71.171
X204.775Y-73.711
X204.775Y-76.251
X204.775Y-78.791
X204.775Y-81.331
X204.775Y-83.871
X204.775Y-86.411
X204.775Y-88.951
X204.775Y-91.491
X204.775Y-94.031
X204.775Y-96.571
X204.775Y-99.111
X204.775Y-101.651
X204.775Y-104.191
X204.775Y-106.731
X204.775Y-109.271
X204.775Y-111.811
T9
X181.671Y-40.235
X181.671Y-46.735
X186.171Y-40.235
X186.171Y-46.735
T10
X51.206Y-24.282
X51.206Y-140.868
X178.206Y-118.466
X232.983Y-77.888
X232.983Y-102.888
X237.338Y-24.282
X237.338Y-165.049
T3
X218.503Y-38.283G85X218.503Y-35.783
G05
X224.853Y-38.283G85X224.853Y-35.783
G05
T5
X239.254Y-121.723G85X240.654Y-121.723
G05
X239.254Y-135.223G85X240.654Y-135.223
G05
X240.754Y-127.773G85X240.754Y-129.173
G05
T0
M30
